<?xml version="1.0" encoding="UTF-8" standalone="no"?>
<!-- Created with Inkscape (http://www.inkscape.org/) -->

<svg
   xmlns:dc="http://purl.org/dc/elements/1.1/"
   xmlns:cc="http://creativecommons.org/ns#"
   xmlns:rdf="http://www.w3.org/1999/02/22-rdf-syntax-ns#"
   xmlns:svg="http://www.w3.org/2000/svg"
   xmlns="http://www.w3.org/2000/svg"
   xmlns:sodipodi="http://sodipodi.sourceforge.net/DTD/sodipodi-0.dtd"
   xmlns:inkscape="http://www.inkscape.org/namespaces/inkscape"
   version="1.0"
   width="47.47258"
   height="49.785042"
   id="svg38779"
   inkscape:version="0.48.3.1 r9886"
   sodipodi:docname="dog_white_mono.svg">
  <metadata
     id="metadata8">
    <rdf:RDF>
      <cc:Work
         rdf:about="">
        <dc:format>image/svg+xml</dc:format>
        <dc:type
           rdf:resource="http://purl.org/dc/dcmitype/StillImage" />
      </cc:Work>
    </rdf:RDF>
  </metadata>
  <sodipodi:namedview
     pagecolor="#ffffff"
     bordercolor="#666666"
     borderopacity="1"
     objecttolerance="10"
     gridtolerance="10"
     guidetolerance="10"
     inkscape:pageopacity="0"
     inkscape:pageshadow="2"
     inkscape:window-width="1920"
     inkscape:window-height="1176"
     id="namedview6"
     showgrid="false"
     fit-margin-top="3"
     fit-margin-left="3"
     fit-margin-bottom="3"
     fit-margin-right="3"
     inkscape:zoom="5.2051169"
     inkscape:cx="23.647289"
     inkscape:cy="24.847067"
     inkscape:window-x="0"
     inkscape:window-y="24"
     inkscape:window-maximized="1"
     inkscape:current-layer="svg38779" />
  <defs
     id="defs38782" />
  <path
     d="m 30.777995,26.77465 c 2.40733,5.778526 4.61821,8.265183 5.74532,9.247486 0.49531,0.429815 1.06992,0.192771 1.21751,-0.01845 2.21733,-3.217159 4.23635,-10.009348 5.54517,-15.361749 0.26102,-1.076383 1.21012,-0.793221 1.18614,0.296075 -0.0406,3.979943 -0.70744,8.564025 -1.46285,12.888927 -0.93987,5.372691 -2.13063,10.318335 -3.73276,12.958102 l -19.7964,0 c -0.32836,-1.642706 0.52389,-2.698798 1.87514,-3.156284 1.25255,-0.430737 4.96317,0.492536 4.96317,0.492536 -1.12066,-2.069755 -1.44718,-4.413447 -0.62351,-5.75639 0.61705,-1.00444 2.6001,-1.411196 4.03989,-1.158472 0.23152,0.04058 0.23612,-0.08486 0.0387,-0.192771 -3.59533,-1.968296 -5.4225,0.556177 -5.60974,1.770913 -0.21399,1.412118 -0.14758,1.882517 0.0175,3.166429 -4.80913,0.373552 -6.59665,-2.135241 -7.11408,-3.089874 -0.0913,-0.155877 -0.18724,-0.106993 -0.17894,0.119905 0.0637,1.329107 0.16971,4.966858 -0.23981,6.290431 -0.35879,1.183375 -0.88454,1.513577 -0.88454,1.513577 l -8.9449597,0 c 0.0314,-0.756328 0.39662,-2.271749 1.8410097,-2.632388 1.71189,-0.427971 1.96553,-0.360639 2.6656,-2.237623 0.72221,-1.936936 1.19906,-4.388543 1.7414,-8.433973 0.46578,-3.444056 1.13356,-6.962824 1.35494,-8.101927 0.0488,-0.245345 -0.012,-0.325589 -0.23428,-0.252724 -0.61522,0.201995 -2.26899,0.549721 -5.98883,0.284084 -4.6514097,-0.332968 -5.2573997,-3.717994 -5.1946697,-5.919646 1.80872,-0.919585 8.8785397,-4.076791 12.3982297,-7.890712 0.17985,-0.329279 0.49623,-0.74157 -0.1983,-0.789532 -0.59492,-0.04335 -0.59308,-0.130052 -6.74977,-0.354183 -0.0728,-0.0037 -0.16418,-0.05257 -0.0544,-0.130052 0.83288,-0.601372 4.7003,-3.25221 9.36923,-4.4817032 2.21825,-0.5838482 2.95798,0 3.05575,1.3143502 0.0618,0.84764 -0.0489,1.94247 -0.12913,3.058516 -0.0674,0.933419 0.95371,0.78861 1.11881,0.264715 0,0 1.61412,-4.6726302 3.9449,-6.4140286 1.35953,-1.0127411 3.48556,-1.4139631 4.27417,-0.724045 -1.11697,1.6131912 -2.20257,4.0435858 -2.49589,5.9187246 -0.18077,1.128036 -0.37908,2.928465 -0.51283,4.143201 -0.12819,1.217503 -0.63918,1.842857 -0.83749,2.435006 -0.19645,0.59215 0.13098,1.330953 0.57462,2.089125 l 4.01592,8.844421"
     id="path23024"
     style="fill:#dfdbd2;fill-opacity:1;fill-rule:nonzero;stroke:#000000;stroke-width:0;stroke-miterlimit:4;stroke-opacity:1;stroke-dasharray:none"
     inkscape:connector-curvature="0" />
  <path
     d="m 16.242855,15.876707 -2.75321,0.157722 2.13339,1.74601 -0.69545,2.666516 2.3151,-1.488674 2.32063,1.488674 -0.69821,-2.666516 2.13339,-1.74601 -2.75506,-0.157722 -1.00075,-2.568747 -0.99983,2.568747 z"
     id="path23028"
     style="fill:#000000;fill-opacity:1;fill-rule:nonzero;stroke:none"
     inkscape:connector-curvature="0" />
</svg>
